<svg width="58" height="58" viewBox="0 0 58 58" fill="none" xmlns="http://www.w3.org/2000/svg">
<path fill-rule="evenodd" clip-rule="evenodd" d="M41.2007 7.41992C44.3847 7.41992 47.4477 8.67835 49.701 10.9364C51.9566 13.1897 53.2174 16.2289 53.2174 19.4106V38.1682C53.2174 44.7927 47.8276 50.1588 41.2007 50.1588H17.7441C11.1172 50.1588 5.72974 44.7927 5.72974 38.1682V19.4106C5.72974 12.786 11.0935 7.41992 17.7441 7.41992H41.2007ZM44.9781 22.9473L45.1681 22.7574C45.7356 22.0688 45.7356 21.0716 45.142 20.383C44.8119 20.0292 44.3584 19.8131 43.8859 19.7656C43.3873 19.7395 42.9124 19.9081 42.5539 20.2405L31.8478 28.7883C30.4707 29.9304 28.4975 29.9304 27.099 28.7883L16.4143 20.2405C15.6759 19.6944 14.6549 19.7656 14.0399 20.4067C13.3988 21.0478 13.3276 22.0688 13.8713 22.7811L14.1824 23.0898L24.9858 31.5188C26.3155 32.5636 27.9277 33.1334 29.6159 33.1334C31.2993 33.1334 32.94 32.5636 34.2673 31.5188L44.9781 22.9473Z" fill="#9E9E9E"/>
</svg>
