<svg width="58" height="58" viewBox="0 0 58 58" fill="none" xmlns="http://www.w3.org/2000/svg">
<path fill-rule="evenodd" clip-rule="evenodd" d="M42.5856 18.1979V21.8387C46.6751 23.1152 49.6548 26.8173 49.6548 31.239V42.9611C49.6548 48.4352 45.1165 52.8734 39.5215 52.8734H19.426C13.8286 52.8734 9.29028 48.4352 9.29028 42.9611V31.239C9.29028 26.8173 12.2724 23.1152 16.3595 21.8387V18.1979C16.3836 11.1194 22.2465 5.38574 29.4364 5.38574C36.7227 5.38574 42.5856 11.1194 42.5856 18.1979ZM29.4845 9.51494C34.3823 9.51494 38.3632 13.4082 38.3632 18.198V21.3267H20.5816V18.1508C20.6057 13.3846 24.5867 9.51494 29.4845 9.51494ZM31.5833 39.7085C31.5833 40.8646 30.6424 41.7848 29.4602 41.7848C28.3021 41.7848 27.3611 40.8646 27.3611 39.7085V34.4703C27.3611 33.3378 28.3021 32.4175 29.4602 32.4175C30.6424 32.4175 31.5833 33.3378 31.5833 34.4703V39.7085Z" fill="#9E9E9E"/>
</svg>
