<svg width="109" height="109" viewBox="0 0 109 109" fill="none" xmlns="http://www.w3.org/2000/svg">
<rect x="0.782227" y="0.851562" width="107.588" height="107.588" rx="53.794" fill="#4D5DFA"/>
<path fill-rule="evenodd" clip-rule="evenodd" d="M56.0074 32.2683C55.1352 31.7152 54.018 31.7152 53.1457 32.2683L31.0266 46.2941C29.7918 47.077 29.4315 48.7034 30.2217 49.9268C31.0119 51.1501 32.6535 51.5071 33.8882 50.7242L35.9964 49.3873V70.4245C35.9964 74.2976 39.1654 77.4374 43.0746 77.4374H66.0785C69.9877 77.4374 73.1567 74.2976 73.1567 70.4245V49.3873L75.2649 50.7242C76.4996 51.5071 78.1412 51.1501 78.9314 49.9268C79.7216 48.7034 79.3613 47.077 78.1266 46.2941L56.0074 32.2683Z" fill="white"/>
<rect x="49.6191" y="59.5977" width="9.91047" height="17.8389" fill="#4D5DFA"/>
</svg>
