<svg width="94" height="94" viewBox="0 0 94 94" fill="none" xmlns="http://www.w3.org/2000/svg">
<path d="M76.4186 93.9526H17.4841C7.7198 93.9526 0.0478516 86.2806 0.0478516 76.5163V17.5817C0.0478516 7.81745 7.7198 0.145508 17.4841 0.145508H76.4186C86.1829 0.145508 93.8548 7.81745 93.8548 17.5817V76.5163C93.8548 86.2806 85.8342 93.9526 76.4186 93.9526Z" fill="url(#paint0_linear_454_5866)"/>
<path fill-rule="evenodd" clip-rule="evenodd" d="M35.6084 23.3388C35.0738 23.5258 34.607 23.8475 34.329 24.2206C33.9002 24.7961 33.8082 25.2739 33.8082 26.9267V28.4456L31.7645 28.4465C29.8213 28.4473 29.697 28.4578 29.2346 28.6597C28.9673 28.7764 28.5909 29.0446 28.3984 29.2556C27.8126 29.8972 27.7493 30.2057 27.7493 32.4177C27.7493 34.2599 27.761 34.3874 27.9487 34.6113C28.2243 34.9399 28.7169 34.9399 28.9925 34.6113C29.1798 34.3881 29.1919 34.2591 29.1919 32.4873C29.1919 29.7248 29.117 29.7984 31.928 29.7984H33.8082V30.4584C33.8082 31.7146 34.3138 32.5837 35.2935 33.0114C36.2183 33.4153 37.4576 33.2429 38.169 32.6114C38.6825 32.1557 38.9291 31.5548 38.9809 30.6326L39.0278 29.7984H41.7075H44.3873V30.4584C44.3873 31.3175 44.5865 31.9229 45.0289 32.4075C46.2417 33.7362 48.6123 33.4038 49.3507 31.8017C49.4358 31.6169 49.5278 31.093 49.5559 30.6326L49.6069 29.7984H52.2735H54.9401L54.991 30.6326C55.0191 31.093 55.1112 31.6169 55.1963 31.8017C55.9347 33.4038 58.3053 33.7362 59.518 32.4075C59.9604 31.9229 60.1597 31.3175 60.1597 30.4584V29.7984H62.0399C63.5323 29.7984 63.9781 29.8266 64.2021 29.9352C64.816 30.2329 64.776 29.1904 64.776 44.8846V59.1681L64.9985 59.3643C65.2943 59.6247 65.7415 59.6191 66.0095 59.3516L66.2186 59.1428V44.8024C66.2186 28.871 66.2665 30.0191 65.5695 29.2556C65.377 29.0446 65.0007 28.7764 64.7333 28.6597C64.2711 28.4579 64.1464 28.4473 62.2109 28.4465L60.1747 28.4456L60.1431 26.7546C60.1079 24.8692 60.0202 24.5408 59.3947 23.9542C58.8482 23.4417 58.3765 23.2639 57.563 23.2639C56.7495 23.2639 56.2778 23.4417 55.7313 23.9542C55.1058 24.5408 55.0181 24.8692 54.9829 26.7546L54.9513 28.4456H52.2735H49.5956L49.5641 26.7546C49.5289 24.8692 49.4412 24.5408 48.8157 23.9542C48.2691 23.4417 47.7975 23.2639 46.984 23.2639C46.1704 23.2639 45.6988 23.4417 45.1522 23.9542C44.5267 24.5408 44.439 24.8692 44.4038 26.7546L44.3723 28.4456H41.6944H39.0166L38.985 26.7546C38.9498 24.8692 38.8621 24.5408 38.2366 23.9542C37.5654 23.3248 36.4171 23.0559 35.6084 23.3388ZM36.8829 24.6829C37.0135 24.7449 37.2191 24.933 37.3397 25.1007C37.5562 25.402 37.559 25.4412 37.559 28.1913C37.559 31.2056 37.5273 31.4236 37.0466 31.719C36.6947 31.9352 36.0131 31.9193 35.6989 31.6875C35.2746 31.3745 35.2367 31.0514 35.2689 28.0243L35.2989 25.2131L35.5393 24.9707C35.9371 24.5695 36.4241 24.4652 36.8829 24.6829ZM47.4619 24.6829C47.5925 24.7449 47.7982 24.933 47.9188 25.1007C48.1352 25.402 48.138 25.4412 48.138 28.1913C48.138 31.2056 48.1064 31.4236 47.6256 31.719C47.3083 31.9139 46.6141 31.9175 46.322 31.7256C45.8641 31.4249 45.8299 31.1791 45.8299 28.1913C45.8299 25.4412 45.8327 25.402 46.0492 25.1007C46.4089 24.6002 46.9502 24.4401 47.4619 24.6829ZM58.041 24.6829C58.1716 24.7449 58.3772 24.933 58.4978 25.1007C58.7143 25.402 58.7171 25.4412 58.7171 28.1913C58.7171 31.1791 58.6828 31.4249 58.225 31.7256C57.9329 31.9175 57.2386 31.9139 56.9213 31.719C56.4406 31.4236 56.4089 31.2056 56.4089 28.1913C56.4089 25.4412 56.4117 25.402 56.6282 25.1007C56.988 24.6002 57.5293 24.4401 58.041 24.6829ZM28.1643 36.7415C28.0488 36.7862 27.9081 36.9037 27.8517 37.0024C27.7805 37.1274 27.7493 41.7689 27.7493 52.2782C27.7493 69.3207 27.6828 67.8939 28.5141 68.6736C29.347 69.4547 27.7013 69.3908 46.984 69.3908C66.2666 69.3908 64.6209 69.4547 65.4538 68.6736C66.1856 67.9873 66.2186 67.8132 66.2186 64.6339C66.2186 63.0188 66.1799 61.8256 66.1244 61.7283C65.902 61.3386 65.0028 61.3658 64.8385 61.7673C64.8041 61.8513 64.776 63.1159 64.776 64.5776C64.776 66.7767 64.7508 67.2808 64.6301 67.4998C64.3118 68.0771 65.5957 68.038 46.984 68.038C32.0338 68.038 30.0149 68.0219 29.7658 67.9011C29.151 67.603 29.1919 68.7236 29.1919 52.1794C29.1919 37.9718 29.1824 37.1131 29.0236 36.937C28.8221 36.7137 28.4531 36.6298 28.1643 36.7415ZM39.8166 36.8293C39.7094 36.8695 38.7402 37.9023 37.6627 39.1243C36.5852 40.3463 35.6806 41.3246 35.6525 41.2982C35.6245 41.2719 35.3819 40.9362 35.1136 40.5524C34.6654 39.9111 34.5968 39.8521 34.2705 39.8266C33.8399 39.7931 33.5197 40.046 33.5197 40.4197C33.5197 40.5737 33.8196 41.1297 34.3015 41.8694C35.151 43.1733 35.367 43.3501 35.8414 43.1297C36.0585 43.0288 37.5186 41.4362 40.1258 38.4564C40.843 37.6368 40.9286 37.3979 40.6195 37.0785C40.3594 36.8096 40.0905 36.7262 39.8166 36.8293ZM43.1365 39.3523C41.1173 39.9283 40.8274 42.41 42.6782 43.2749L43.1748 43.5069H51.1992C57.2419 43.5069 59.3215 43.4797 59.6196 43.3967C60.1401 43.2517 60.8492 42.5867 61.0039 42.0986C61.278 41.2329 60.9796 40.2412 60.2984 39.754C59.6101 39.2617 59.7189 39.2675 51.2243 39.2759C46.9086 39.2801 43.269 39.3146 43.1365 39.3523ZM59.2283 40.7258C59.7363 40.9796 59.8396 41.5606 59.4427 41.9327L59.2067 42.1541H51.2766H43.3465L43.0889 41.8671C42.8892 41.6445 42.8443 41.5201 42.8886 41.312C42.9563 40.9949 43.1056 40.8088 43.3741 40.7068C43.6988 40.5833 58.9799 40.6018 59.2283 40.7258ZM39.8166 45.7578C39.7094 45.7981 38.7402 46.8309 37.6627 48.0529C36.5852 49.2749 35.6806 50.2531 35.6525 50.2268C35.6245 50.2005 35.3819 49.8648 35.1136 49.481C34.6654 48.8397 34.5968 48.7806 34.2705 48.7552C33.8399 48.7217 33.5197 48.9746 33.5197 49.3483C33.5197 49.5022 33.8196 50.0582 34.3015 50.798C35.1516 52.1028 35.3661 52.2781 35.8438 52.0582C36.0531 51.9619 37.8239 50.0243 40.3643 47.1123C40.8427 46.5638 40.9035 46.3006 40.6195 46.0071C40.3594 45.7382 40.0905 45.6547 39.8166 45.7578ZM43.3775 48.2568C42.5458 48.4375 42.0078 48.7916 41.7003 49.3606C41.1244 50.4266 41.584 51.7519 42.7004 52.2439C43.1328 52.4346 43.1747 52.4355 51.2866 52.4335C59.0226 52.4316 59.458 52.423 59.8231 52.2641C60.6265 51.9146 61.1231 51.1781 61.1193 50.3415C61.1156 49.5251 60.6711 48.8585 59.8592 48.4524L59.4384 48.2418L51.5041 48.2284C47.1402 48.2211 43.4833 48.2338 43.3775 48.2568ZM59.4468 49.8477C59.75 50.1783 59.7485 50.5747 59.4427 50.8613L59.2067 51.0827H51.268C43.4917 51.0827 43.3255 51.0791 43.1394 50.9046C42.8875 50.6683 42.8152 50.3647 42.9386 50.0605C43.1489 49.542 42.9556 49.5531 51.4403 49.5748L59.2147 49.5946L59.4468 49.8477ZM39.7892 54.7517C39.72 54.7777 38.7938 55.7789 37.7311 56.9767C36.6684 58.1745 35.7688 59.1869 35.7319 59.2264C35.695 59.266 35.4545 58.9744 35.1974 58.5785C34.6015 57.6607 34.2659 57.4898 33.7731 57.8533C33.3555 58.1613 33.4308 58.4601 34.2366 59.6917C35.0842 60.9874 35.2158 61.1163 35.6505 61.0773C35.9423 61.0511 36.1886 60.8063 38.3101 58.433C39.5959 56.9945 40.6898 55.7209 40.7409 55.6027C40.967 55.0798 40.3603 54.5373 39.7892 54.7517ZM42.7042 57.3985C41.8756 57.7775 41.3221 58.7493 41.4564 59.5892C41.5953 60.4577 42.3297 61.1788 43.2596 61.3598C43.6145 61.4289 46.166 61.4517 51.6046 61.4342L59.4384 61.4092L59.8592 61.1986C60.6711 60.7925 61.1156 60.1259 61.1193 59.3094C61.1231 58.4728 60.6265 57.7364 59.8231 57.3868C59.4577 57.2278 59.0266 57.2195 51.2637 57.221C43.3553 57.2226 43.0764 57.2283 42.7042 57.3985ZM59.4427 58.7897C59.7485 59.0763 59.75 59.4727 59.4468 59.8033L59.2147 60.0564L51.4652 60.0804C44.826 60.1012 43.6674 60.0856 43.3777 59.9721C42.8227 59.7547 42.7058 59.153 43.1394 58.7464C43.3255 58.5719 43.4917 58.5683 51.268 58.5683H59.2067L59.4427 58.7897Z" fill="white"/>
<defs>
<linearGradient id="paint0_linear_454_5866" x1="47.2748" y1="-15.4067" x2="53.1248" y2="105.51" gradientUnits="userSpaceOnUse">
<stop stop-color="#9C2CF3"/>
<stop offset="1" stop-color="#3A49F9"/>
</linearGradient>
</defs>
</svg>
