<svg width="121" height="117" viewBox="0 0 121 117" fill="none" xmlns="http://www.w3.org/2000/svg">
<circle cx="61.5899" cy="59.4425" r="45.5421" fill="url(#paint0_linear_339_6381)"/>
<circle cx="115.084" cy="18.9606" r="5.06023" fill="#F75555"/>
<ellipse cx="12.4337" cy="7.39468" rx="6.50601" ry="6.50601" fill="#F75555"/>
<ellipse cx="5.92769" cy="86.1884" rx="2.89156" ry="2.89156" fill="#F75555"/>
<ellipse cx="105.686" cy="103.538" rx="1.44578" ry="1.44578" fill="#F75555"/>
<ellipse cx="68.0962" cy="3.77976" rx="1.44578" ry="1.44578" fill="#F75555"/>
<path d="M55.2004 50.6393C57.4872 46.6784 58.6306 44.698 60.1397 44.0637C61.3452 43.5569 62.704 43.5569 63.9095 44.0637C65.4186 44.698 66.562 46.6784 68.8488 50.6393L74.3905 60.2378C76.6773 64.1987 77.8207 66.1791 77.6155 67.8031C77.4516 69.1005 76.7722 70.2773 75.7306 71.0679C74.4267 72.0576 72.1399 72.0576 67.5663 72.0576H56.4829C51.9093 72.0576 49.6225 72.0576 48.3186 71.0679C47.277 70.2773 46.5976 69.1005 46.4337 67.8031C46.2285 66.1791 47.3719 64.1987 49.6587 60.2378L55.2004 50.6393Z" fill="white"/>
<rect x="60.4639" y="51.3027" width="3.12162" height="11.5054" rx="1.56081" fill="#F75555"/>
<rect x="60.4639" y="65.0391" width="3.12162" height="3.12162" rx="1.56081" fill="#F75555"/>
<ellipse cx="39.904" cy="114.384" rx="2.16867" ry="2.16867" fill="#F75555"/>
<ellipse cx="78.9397" cy="111.49" rx="0.72289" ry="0.72289" fill="#F75555"/>
<ellipse cx="110.024" cy="71.7309" rx="1.44578" ry="1.44578" fill="#F75555"/>
<ellipse cx="0.867421" cy="49.3225" rx="0.72289" ry="0.72289" fill="#F75555"/>
<defs>
<linearGradient id="paint0_linear_339_6381" x1="107.132" y1="104.985" x2="-1.24995" y2="73.5602" gradientUnits="userSpaceOnUse">
<stop stop-color="#FF5A5F"/>
<stop offset="1" stop-color="#FF9094"/>
</linearGradient>
</defs>
</svg>
