<svg width="58" height="58" viewBox="0 0 58 58" fill="none" xmlns="http://www.w3.org/2000/svg">
<path fill-rule="evenodd" clip-rule="evenodd" d="M23.9415 36.8517C25.4243 37.8569 27.2314 38.4647 29.1543 38.4647C34.2512 38.4647 38.3982 34.2804 38.3982 29.1377C38.3982 27.1975 37.7959 25.3741 36.7997 23.8781L34.2744 26.426C34.6914 27.2208 34.9231 28.1559 34.9231 29.1377C34.9231 32.3402 32.3283 34.9583 29.1543 34.9583C28.1812 34.9583 27.2545 34.7245 26.4668 34.3038L23.9415 36.8517ZM44.4225 16.188C47.7818 19.2736 50.6314 23.4345 52.7629 28.437C52.9482 28.8812 52.9482 29.3954 52.7629 29.8162C47.805 41.4575 38.9781 48.4235 29.1549 48.4235H29.1318C24.6604 48.4235 20.3743 46.9508 16.598 44.2626L12.1034 48.7975C11.7559 49.1482 11.3157 49.3118 10.8755 49.3118C10.4354 49.3118 9.972 49.1482 9.64765 48.7975C9.06846 48.2131 8.97579 47.2781 9.43914 46.6002L9.50865 46.5067L43.7738 11.9336C43.8201 11.8868 43.8665 11.84 43.8896 11.7933L43.8896 11.7933C43.936 11.7465 43.9823 11.6998 44.0055 11.653L46.1832 9.45569C46.8783 8.77779 47.9672 8.77779 48.639 9.45569C49.334 10.1336 49.334 11.2556 48.639 11.9336L44.4225 16.188ZM19.8944 29.1476C19.8944 29.7554 19.9639 30.3632 20.0566 30.9242L11.4845 39.5733C9.16773 36.8617 7.15213 33.589 5.55356 29.8255C5.36822 29.4047 5.36822 28.8905 5.55356 28.4463C10.5115 16.8051 19.3384 9.86239 29.1383 9.86239H29.1615C32.4745 9.86239 35.6948 10.6572 38.6603 12.1532L30.9223 19.9608C30.3662 19.8673 29.7639 19.7972 29.1615 19.7972C24.0414 19.7972 19.8944 23.9815 19.8944 29.1476Z" fill="#9E9E9E"/>
</svg>
