<svg width="41" height="48" viewBox="0 0 41 48" fill="none" xmlns="http://www.w3.org/2000/svg">
<path fill-rule="evenodd" clip-rule="evenodd" d="M33.5856 13.1979V16.8387C37.6751 18.1152 40.6548 21.8173 40.6548 26.239V37.9611C40.6548 43.4352 36.1165 47.8734 30.5215 47.8734H10.426C4.82858 47.8734 0.290283 43.4352 0.290283 37.9611V26.239C0.290283 21.8173 3.27238 18.1152 7.3595 16.8387V13.1979C7.38363 6.11937 13.2465 0.385742 20.4364 0.385742C27.7227 0.385742 33.5856 6.11937 33.5856 13.1979ZM20.4845 4.51494C25.3823 4.51494 29.3632 8.40815 29.3632 13.198V16.3267H11.5816V13.1508C11.6057 8.38456 15.5867 4.51494 20.4845 4.51494ZM22.5833 34.7085C22.5833 35.8646 21.6424 36.7848 20.4602 36.7848C19.3021 36.7848 18.3611 35.8646 18.3611 34.7085V29.4703C18.3611 28.3378 19.3021 27.4175 20.4602 27.4175C21.6424 27.4175 22.5833 28.3378 22.5833 29.4703V34.7085Z" fill="#9E9E9E"/>
</svg>
