<svg width="952" height="2061" viewBox="0 0 952 2061" fill="none" xmlns="http://www.w3.org/2000/svg">
<g clip-path="url(#clip0_571_5868)">
<rect y="0.683594" width="951.653" height="2060.02" rx="28.4926" fill="#FBFBFB"/>
<path opacity="0.15" d="M574.195 750.039C574.195 987.653 360.188 1180.28 96.1974 1180.28C-167.793 1180.28 -381.8 987.653 -381.8 750.039C-381.8 512.425 -167.793 319.801 96.1974 319.801C360.188 319.801 574.195 512.425 574.195 750.039Z" fill="#2E3A59"/>
<path opacity="0.15" d="M1529.1 217.238C1529.1 454.852 1323.72 647.477 1070.37 647.477C817.016 647.477 611.635 454.852 611.635 217.238C611.635 -20.3757 817.016 -213 1070.37 -213C1323.72 -213 1529.1 -20.3757 1529.1 217.238Z" fill="#2E3A59"/>
</g>
<defs>
<clipPath id="clip0_571_5868">
<rect y="0.683594" width="951.653" height="2060.02" rx="28.4926" fill="white"/>
</clipPath>
</defs>
</svg>
