<svg width="121" height="117" viewBox="0 0 121 117" fill="none" xmlns="http://www.w3.org/2000/svg">
<circle cx="61.5899" cy="59.0792" r="45.5421" fill="url(#paint0_linear_339_6337)"/>
<circle cx="115.084" cy="18.5973" r="5.06023" fill="url(#paint1_linear_339_6337)"/>
<circle cx="12.4337" cy="7.03335" r="6.50601" fill="url(#paint2_linear_339_6337)"/>
<circle cx="5.92769" cy="85.8291" r="2.89156" fill="url(#paint3_linear_339_6337)"/>
<circle cx="105.686" cy="103.176" r="1.44578" fill="url(#paint4_linear_339_6337)"/>
<rect x="46.4102" y="45.6367" width="30.0722" height="30.0722" rx="15.0361" fill="white"/>
<rect width="3.12162" height="11.5054" rx="1.56081" transform="matrix(1 0 0 -1 60.4639 67.8008)" fill="#4D5DFA"/>
<rect width="3.12162" height="3.12162" rx="1.56081" transform="matrix(1 0 0 -1 60.4639 54.0645)" fill="#4D5DFA"/>
<circle cx="68.0971" cy="3.41844" r="1.44578" fill="url(#paint5_linear_339_6337)"/>
<circle cx="39.904" cy="114.022" r="2.16867" fill="url(#paint6_linear_339_6337)"/>
<circle cx="78.9397" cy="111.131" r="0.72289" fill="url(#paint7_linear_339_6337)"/>
<circle cx="110.024" cy="71.3696" r="1.44578" fill="url(#paint8_linear_339_6337)"/>
<circle cx="0.867421" cy="48.9612" r="0.72289" fill="url(#paint9_linear_339_6337)"/>
<defs>
<linearGradient id="paint0_linear_339_6337" x1="107.132" y1="104.621" x2="-1.24995" y2="73.1969" gradientUnits="userSpaceOnUse">
<stop stop-color="#4D5DFA"/>
<stop offset="1" stop-color="#7784FF"/>
</linearGradient>
<linearGradient id="paint1_linear_339_6337" x1="120.144" y1="23.6576" x2="108.101" y2="20.166" gradientUnits="userSpaceOnUse">
<stop stop-color="#4D5DFA"/>
<stop offset="1" stop-color="#7784FF"/>
</linearGradient>
<linearGradient id="paint2_linear_339_6337" x1="18.9398" y1="13.5394" x2="3.45662" y2="9.05017" gradientUnits="userSpaceOnUse">
<stop stop-color="#4D5DFA"/>
<stop offset="1" stop-color="#7784FF"/>
</linearGradient>
<linearGradient id="paint3_linear_339_6337" x1="8.81925" y1="88.7206" x2="1.93786" y2="86.7254" gradientUnits="userSpaceOnUse">
<stop stop-color="#4D5DFA"/>
<stop offset="1" stop-color="#7784FF"/>
</linearGradient>
<linearGradient id="paint4_linear_339_6337" x1="107.132" y1="104.622" x2="103.691" y2="103.624" gradientUnits="userSpaceOnUse">
<stop stop-color="#4D5DFA"/>
<stop offset="1" stop-color="#7784FF"/>
</linearGradient>
<linearGradient id="paint5_linear_339_6337" x1="69.5429" y1="4.86422" x2="66.1022" y2="3.86662" gradientUnits="userSpaceOnUse">
<stop stop-color="#4D5DFA"/>
<stop offset="1" stop-color="#7784FF"/>
</linearGradient>
<linearGradient id="paint6_linear_339_6337" x1="42.0727" y1="116.191" x2="36.9116" y2="114.694" gradientUnits="userSpaceOnUse">
<stop stop-color="#4D5DFA"/>
<stop offset="1" stop-color="#7784FF"/>
</linearGradient>
<linearGradient id="paint7_linear_339_6337" x1="79.6626" y1="111.854" x2="77.9422" y2="111.355" gradientUnits="userSpaceOnUse">
<stop stop-color="#4D5DFA"/>
<stop offset="1" stop-color="#7784FF"/>
</linearGradient>
<linearGradient id="paint8_linear_339_6337" x1="111.47" y1="72.8154" x2="108.029" y2="71.8178" gradientUnits="userSpaceOnUse">
<stop stop-color="#4D5DFA"/>
<stop offset="1" stop-color="#7784FF"/>
</linearGradient>
<linearGradient id="paint9_linear_339_6337" x1="1.59031" y1="49.6841" x2="-0.130037" y2="49.1853" gradientUnits="userSpaceOnUse">
<stop stop-color="#4D5DFA"/>
<stop offset="1" stop-color="#7784FF"/>
</linearGradient>
</defs>
</svg>
