<svg width="65" height="66" viewBox="0 0 65 66" fill="none" xmlns="http://www.w3.org/2000/svg">
<rect x="34.6177" y="40.9824" width="6.65975" height="18.8693" rx="3.32987" transform="rotate(-45 34.6177 40.9824)" fill="white"/>
<path fill-rule="evenodd" clip-rule="evenodd" d="M41.2866 42.1608C48.8723 34.5752 48.8723 22.2764 41.2866 14.6908C33.701 7.10511 21.4022 7.1051 13.8166 14.6908C6.23093 22.2764 6.23093 34.5752 13.8166 42.1608C21.4022 49.7465 33.701 49.7465 41.2866 42.1608ZM37.3634 38.2363C42.7817 32.818 42.7817 24.0332 37.3634 18.6148C31.9451 13.1965 23.1602 13.1965 17.7419 18.6148C12.3236 24.0332 12.3236 32.818 17.7419 38.2363C23.1602 43.6546 31.9451 43.6546 37.3634 38.2363Z" fill="white"/>
</svg>
